PathFileType	4	(X/Y/Z)	/Users/itak/Documents/Research/Walk-IL/dataset/trc/00535_00009.trc
DataRate	CameraRate	NumFrames	NumMarkers	Units	OrigDataRate	OrigDataStartFrame	OrigNumFrames
100.000000	100.000000	4	53	mm	100.000000	199	797
Frame#	Time	RPSI			LPSI			L3			STRN			T10			C7			CLAV			RBAK			LBAK			LSHO			LUPA			LAEL			LAOL			LWTS			LWPS			LFRA			LIFD			LHPS			LHTS			RSHO			RUPA			RAEL			RAOL			RWTS			RWPS			RFRA			RIFD			RHTS			RHPS			RBHD			LFHD			RFHD			LBHD			LHIP			RHIP			RASI			LASI			LKNE			LTHI			LANK			LTIP			LTOE			LMT1			LMT5			LHEE			RKNE			RTHI			RANK			RTIP			RTOE			RMT1			RMT5			RHEE			
		X1	Y1	Z1	X2	Y2	Z2	X3	Y3	Z3	X4	Y4	Z4	X5	Y5	Z5	X6	Y6	Z6	X7	Y7	Z7	X8	Y8	Z8	X9	Y9	Z9	X10	Y10	Z10	X11	Y11	Z11	X12	Y12	Z12	X13	Y13	Z13	X14	Y14	Z14	X15	Y15	Z15	X16	Y16	Z16	X17	Y17	Z17	X18	Y18	Z18	X19	Y19	Z19	X20	Y20	Z20	X21	Y21	Z21	X22	Y22	Z22	X23	Y23	Z23	X24	Y24	Z24	X25	Y25	Z25	X26	Y26	Z26	X27	Y27	Z27	X28	Y28	Z28	X29	Y29	Z29	X30	Y30	Z30	X31	Y31	Z31	X32	Y32	Z32	X33	Y33	Z33	X34	Y34	Z34	X35	Y35	Z35	X36	Y36	Z36	X37	Y37	Z37	X38	Y38	Z38	X39	Y39	Z39	X40	Y40	Z40	X41	Y41	Z41	X42	Y42	Z42	X43	Y43	Z43	X44	Y44	Z44	X45	Y45	Z45	X46	Y46	Z46	X47	Y47	Z47	X48	Y48	Z48	X49	Y49	Z49	X50	Y50	Z50	X51	Y51	Z51	X52	Y52	Z52	X53	Y53	Z53	

200	1.99	-827.4962158203125	1016.106323242188	215.7644805908203	-811.5953979492188	1016.613098144531	82.60695648193359	-816.3384399414062	1112.793823242188	141.7428741455078	-570.8035278320312	1291.011596679688	160.0416107177734	-816.7923583984375	1237.602783203125	136.8197174072266	-761.0696411132812	1508.274658203125	150.9471740722656	-586.1618041992188	1403.693237304688	159.8556060791016	-843.0760498046875	1387.664184570312	232.1262817382812	-785.0615234375	1455.708740234375	53.75491714477539	-675.131591796875	1477.906860351562	-13.12349891662598	-667.7758178710938	1353.150512695312	-94.99082946777344	-624.6841430664062	1132.72900390625	-109.5713882446289	-721.8687133789062	1118.1337890625	-85.56896209716797	-531.2564697265625	896.9266357421875	-35.5027961730957	-552.2081909179688	871.4303588867188	-115.9985504150391	-594.5420532226562	1048.238037109375	-108.3535995483398	-525.5785522460938	726.9608154296875	-41.15593719482422	-541.378173828125	812.302001953125	-105.1236267089844	-504.5177612304688	821.38720703125	-49.19999694824219	-716.7317504882812	1471.012451171875	311.4442443847656	-743.0162353515625	1406.925903320312	377.6641540527344	-758.9581298828125	1119.193237304688	429.541259765625	-812.0836791992188	1102.97412109375	399.3296203613281	-631.0595703125	893.188720703125	402.1255187988281	-679.7811279296875	876.4447021484375	467.1002807617188	-749.6452026367188	1063.603149414062	438.138671875	-623.3629760742188	721.27490234375	412.1953125	-605.0419921875	802.6250610351562	422.8476867675781	-662.789306640625	802.3795776367188	469.708740234375	-701.6033325195312	1677.462524414062	224.3370208740234	-533.1848754882812	1715.271484375	108.5428771972656	-567.4425659179688	1711.6064453125	248.6808013916016	-655.1510009765625	1680.84228515625	65.16024017333984	-679.2877197265625	929.4656372070312	-37.17873764038086	-709.8687744140625	950.1509399414062	350.2182922363281	-622.3612670898438	978.3558959960938	292.9852600097656	-603.1201171875	953.867431640625	19.20849800109863	-689.214599609375	485.3638916015625	49.6297721862793	-671.7191162109375	647.0565795898438	4.652664661407471	-810.176025390625	33.87729263305664	79.43222045898438	-773.3372192382812	244.982177734375	58.26202774047852	-605.5194702148438	38.23623275756836	152.6864624023438	-679.96923828125	39.67155838012695	182.9907073974609	-686.8711547851562	35.61206436157227	74.74382781982422	-883.667724609375	36.37742233276367	128.4159088134766	-558.0634155273438	526.0414428710938	329.3547973632812	-636.9002075195312	806.4644775390625	356.4491882324219	-663.77685546875	55.91618728637695	336.0367431640625	-557.66650390625	377.5617065429688	327.466064453125	-445.4260864257812	71.08020782470703	312.2348327636719	-504.4641723632812	62.75687789916992	266.2702941894531	-535.524658203125	59.93502044677734	365.8153381347656	-714.0421142578125	47.46857833862305	276.3418884277344	
201	2	-825.0652465820312	1015.740173339844	215.7489624023438	-809.121337890625	1016.20263671875	82.57954406738281	-813.7805786132812	1112.52001953125	141.7555389404297	-568.217529296875	1290.5947265625	160.0744781494141	-814.3416137695312	1237.403564453125	136.9955596923828	-758.3255615234375	1508.049438476562	151.1191558837891	-583.4754028320312	1403.3720703125	159.8191375732422	-840.312255859375	1387.490844726562	232.3648529052734	-782.4614868164062	1455.494018554688	53.94915008544922	-672.5809936523438	1477.588623046875	-13.05894756317139	-665.3833618164062	1352.761352539062	-94.88606262207031	-622.5537109375	1132.3173828125	-109.352783203125	-719.7509155273438	1117.820068359375	-85.17425537109375	-529.2466430664062	896.4822387695312	-35.20527267456055	-550.3106689453125	870.9518432617188	-115.6465759277344	-592.514892578125	1047.7724609375	-108.1103591918945	-523.6925048828125	726.5336303710938	-40.86613845825195	-539.5169067382812	811.8308715820312	-104.701286315918	-502.5741882324219	820.90185546875	-48.88347244262695	-713.828125	1470.680908203125	311.602294921875	-740.0919189453125	1406.611450195312	377.7992248535156	-756.4700317382812	1118.892822265625	429.579345703125	-809.6597900390625	1102.795288085938	399.3801574707031	-629.5084228515625	892.3509521484375	402.3859558105469	-678.155517578125	875.882080078125	467.2768859863281	-747.3018798828125	1063.283935546875	438.2030029296875	-622.4923706054688	720.418212890625	412.4552001953125	-603.7807006835938	801.6666259765625	423.0032958984375	-661.416259765625	801.72705078125	469.8697814941406	-698.6815185546875	1677.1748046875	224.5117034912109	-530.3853149414062	1714.900268554688	108.5273284912109	-564.4404907226562	1711.285888671875	248.7223510742188	-652.3970947265625	1680.567016601562	65.29794311523438	-677.0464477539062	929.2841796875	-37.236572265625	-707.3014526367188	949.9641723632812	350.1896667480469	-619.9393310546875	978.2162475585938	293.1217346191406	-600.6735229492188	953.5206298828125	19.30055236816406	-687.79345703125	485.1163635253906	49.79616165161133	-669.7122192382812	646.7528076171875	5.013330459594727	-810.0753173828125	34.08468627929688	79.48351287841797	-772.6705322265625	244.9437713623047	58.46480941772461	-605.3751220703125	38.05678939819336	152.6838836669922	-679.977783203125	39.68645858764648	183.1653747558594	-686.8251953125	35.61160278320312	74.76857757568359	-883.6165771484375	36.55269622802734	128.4762115478516	-554.6898193359375	526.22216796875	329.8506164550781	-634.5361938476562	806.3749389648438	356.8987121582031	-650.7586669921875	54.13200759887695	337.0309753417969	-551.6473999023438	377.9862976074219	328.1631774902344	-432.6935729980469	72.44155883789062	312.7445678710938	-491.8043212890625	63.39047241210938	266.909912109375	-522.5477905273438	59.96689224243164	366.5187072753906	-701.0934448242188	45.08412551879883	277.4680786132812	
202	2.01	-822.5680541992188	1015.382141113281	215.7574157714844	-806.5706176757812	1015.804992675781	82.57123565673828	-811.1265258789062	1112.241455078125	141.7808227539062	-565.57421875	1290.164428710938	160.1476440429688	-811.8302001953125	1237.195678710938	137.1923980712891	-755.5320434570312	1507.821655273438	151.3369140625	-580.7343139648438	1403.048217773438	159.8226165771484	-837.4974975585938	1387.296875	232.6482696533203	-779.8062744140625	1455.280029296875	54.18637466430664	-669.976806640625	1477.281005859375	-12.94249725341797	-662.9417114257812	1352.3828125	-94.74237060546875	-620.422119140625	1131.9013671875	-109.0923614501953	-717.6361694335938	1117.529663085938	-84.74483489990234	-527.3025512695312	896.0092163085938	-34.87662124633789	-548.4990844726562	870.441162109375	-115.2610397338867	-590.515869140625	1047.299438476562	-107.8287048339844	-521.9111938476562	726.0659790039062	-40.52958297729492	-537.74755859375	811.3391723632812	-104.2435684204102	-500.7392272949219	820.371337890625	-48.52396774291992	-710.8792724609375	1470.329711914062	311.8042297363281	-737.1129150390625	1406.277465820312	377.9718933105469	-753.8829956054688	1118.57177734375	429.6416320800781	-807.138427734375	1102.588500976562	399.4574890136719	-627.792724609375	891.5198974609375	402.6240539550781	-676.3958129882812	875.30322265625	467.4537048339844	-744.8480834960938	1062.942504882812	438.2894897460938	-621.475341796875	719.5601196289062	412.7132873535156	-602.3938598632812	800.7056274414062	423.1541748046875	-659.916015625	801.06494140625	470.0449829101562	-695.7015380859375	1676.894653320312	224.7343444824219	-527.5376586914062	1714.516357421875	108.5443496704102	-561.3695068359375	1710.976806640625	248.7902221679688	-649.5999145507812	1680.28369140625	65.47518920898438	-674.5755615234375	928.9878540039062	-37.16791534423828	-704.6223754882812	949.7750854492188	350.12548828125	-617.4677734375	978.05419921875	293.2967834472656	-598.1752319335938	953.1571655273438	19.45066833496094	-686.3203125	484.8721313476562	49.95859909057617	-667.6774291992188	646.46142578125	5.389051914215088	-809.9688110351562	34.32696533203125	79.52597045898438	-771.9817504882812	244.9398193359375	58.68913269042969	-605.2191772460938	37.86404800415039	152.6763458251953	-679.997314453125	39.70172119140625	183.3353576660156	-686.7670288085938	35.61156845092773	74.79192352294922	-883.5397338867188	36.73606109619141	128.5149383544922	-551.4075317382812	526.3355712890625	330.4036865234375	-632.1905517578125	806.234130859375	357.3904113769531	-637.6861572265625	52.46975708007812	337.9738464355469	-545.7263793945312	378.4165954589844	328.889404296875	-419.9719848632812	73.91078948974609	313.2370300292969	-479.1318664550781	64.13633728027344	267.5271911621094	-509.5511169433594	60.07331085205078	367.1827087402344	-688.0692749023438	42.86356353759766	278.5241394042969	
203	2.02	-820.005615234375	1015.038330078125	215.7950744628906	-803.9478759765625	1015.428649902344	82.59261322021484	-808.382568359375	1111.96728515625	141.8247222900391	-562.8703002929688	1289.733154296875	160.2584381103516	-809.2506103515625	1236.98291015625	137.4062042236328	-752.6921997070312	1507.593017578125	151.5999298095703	-577.9423828125	1402.723022460938	159.8720397949219	-834.6365356445312	1387.08203125	232.9722747802734	-777.0964965820312	1455.069458007812	54.46474075317383	-667.3178100585938	1476.9873046875	-12.77503681182861	-660.45166015625	1352.0205078125	-94.55980682373047	-618.2935180664062	1131.480346679688	-108.7890930175781	-715.5201416015625	1117.265502929688	-84.28561401367188	-525.4266967773438	895.5072631835938	-34.51705932617188	-546.777587890625	869.9006958007812	-114.8448181152344	-588.5419311523438	1046.825561523438	-107.5086517333984	-520.2314453125	725.564697265625	-40.15207290649414	-536.0697021484375	810.82763671875	-103.7598419189453	-499.010009765625	819.802001953125	-48.1271858215332	-707.8899536132812	1469.966552734375	312.0478820800781	-734.0888061523438	1405.927001953125	378.1839294433594	-751.2012939453125	1118.231811523438	429.7279357910156	-804.5282592773438	1102.355712890625	399.5632629394531	-625.9056396484375	890.704833984375	402.8369140625	-674.4947509765625	874.7164306640625	467.6331176757812	-742.2889404296875	1062.583984375	438.395263671875	-620.2908935546875	718.7131958007812	412.9679565429688	-600.8660888671875	799.7556762695312	423.3027648925781	-658.282470703125	800.403564453125	470.2406616210938	-692.6670532226562	1676.628051757812	225.0059967041016	-524.6407470703125	1714.123657226562	108.5984497070312	-558.2400512695312	1710.672973632812	248.8879699707031	-646.7608642578125	1679.996459960938	65.69278717041016	-671.8548583984375	928.5642700195312	-36.95842361450195	-701.8551025390625	949.5873413085938	350.0535278320312	-614.9420776367188	977.872314453125	293.5042114257812	-595.6244506835938	952.7716064453125	19.64570045471191	-684.7960205078125	484.6304931640625	50.11705017089844	-665.6289672851562	646.183349609375	5.760974407196045	-809.8649291992188	34.59483337402344	79.55794525146484	-771.2667846679688	244.9611968994141	58.93878173828125	-605.0656127929688	37.66107177734375	152.6603240966797	-680.0166625976562	39.70675277709961	183.4911956787109	-686.7005004882812	35.60996627807617	74.81256866455078	-883.4402465820312	36.92720794677734	128.5305938720703	-548.2093505859375	526.392822265625	331.0079650878906	-629.8494873046875	806.0515747070312	357.9215393066406	-624.6106567382812	50.95480728149414	338.8640441894531	-539.9067993164062	378.8569641113281	329.6358337402344	-407.3128662109375	75.54322052001953	313.7022399902344	-466.4926147460938	65.04756164550781	268.1139526367188	-496.5732116699219	60.29436492919922	367.7919006347656	-675.0172729492188	40.81851959228516	279.511474609375	
